<svg xmlns="http://www.w3.org/2000/svg" viewBox="0 0 406.31 118.93"><defs><style>.cls-1{fill:#FFFFFF;}</style></defs><g id="Layer_2" data-name="Layer 2"><g id="Layer_1-2" data-name="Layer 1"><path class="cls-1" d="M158.32,41.81h-37a.72.72,0,0,0-.72.72v6.68a.72.72,0,0,0,.72.72H133.6a.72.72,0,0,1,.72.72V89.94a.72.72,0,0,0,.71.72h8.34a.72.72,0,0,0,.71-.72V50.65a.72.72,0,0,1,.72-.72H152a1.12,1.12,0,0,0,.86-.39l5.86-6.91A.5.5,0,0,0,158.32,41.81Z"/><path class="cls-1" d="M193.23,63.66H177.31a.72.72,0,0,0-.72.72v6.55a.72.72,0,0,0,.72.72h7.21a.71.71,0,0,1,.71.72v8.56a.7.7,0,0,1-.27.57,10.23,10.23,0,0,1-5.86,1.63c-9.57,0-14.46-6.4-14.46-17s5.68-16.83,13.8-16.83a12.56,12.56,0,0,1,9,3.57.71.71,0,0,0,1-.06l4.3-5.11a.72.72,0,0,0,0-1,20.55,20.55,0,0,0-14.64-5.8c-13,0-23.43,9.44-23.43,25.54,0,16.31,10.09,25.15,23.43,25.15a23.11,23.11,0,0,0,15.61-5.66.72.72,0,0,0,.23-.53v-21A.72.72,0,0,0,193.23,63.66Z"/><rect class="cls-1" x="201.18" y="41.81" width="9.77" height="48.84" rx="0.72"/><path class="cls-1" d="M98.62,48a1.92,1.92,0,0,0-2.7,0l-3.8,3.8a1.91,1.91,0,0,0,0,2.71l17,17L87.23,93.48,65.31,71.56l1.11-1.12A1.88,1.88,0,0,0,67,69.09a1.92,1.92,0,0,0-.56-1.35l-3.79-3.8a1.93,1.93,0,0,0-2.71,0l-2.79,2.8a6.81,6.81,0,0,0-.75,8.74,5.85,5.85,0,0,0,.75.91L82.4,101.66a6.79,6.79,0,0,0,4.83,2h.1a6.73,6.73,0,0,0,4.73-2l25.27-25.27a6.84,6.84,0,0,0,0-9.66Z"/><path class="cls-1" d="M67.51,91.72a1.92,1.92,0,0,0-2.71,0l-17,17L25.85,86.83,47.77,64.9,48.89,66a1.9,1.9,0,0,0,2.7,0l3.8-3.8a1.9,1.9,0,0,0,0-2.7l-2.8-2.79A6.79,6.79,0,0,0,43.86,56a6.43,6.43,0,0,0-.92.75L17.67,82a6.79,6.79,0,0,0-2,4.83v.1a6.75,6.75,0,0,0,2,4.73l25.27,25.27a6.78,6.78,0,0,0,4.83,2h0a6.79,6.79,0,0,0,4.83-2h0L71.3,98.22a1.9,1.9,0,0,0,0-2.7Z"/><path class="cls-1" d="M22.06,70.66a1.91,1.91,0,0,0,1.35-.56l3.8-3.8a1.92,1.92,0,0,0,0-2.7l-17-17L32.1,24.64,54,46.56l-1.11,1.12a1.91,1.91,0,0,0,0,2.7l3.79,3.8a1.91,1.91,0,0,0,2.71,0l2.79-2.79A6.83,6.83,0,0,0,63,42.64a8,8,0,0,0-.75-.91L36.93,16.46a6.79,6.79,0,0,0-4.83-2H32a6.77,6.77,0,0,0-4.73,2L2,41.73a6.83,6.83,0,0,0,0,9.66L20.71,70.1A1.91,1.91,0,0,0,22.06,70.66Z"/><path class="cls-1" d="M51.42,27.21a1.92,1.92,0,0,0,2.7,0l17-17L93.08,32.1,71.16,54,70,52.91a1.9,1.9,0,0,0-2.7,0l-3.8,3.8a1.9,1.9,0,0,0,0,2.7l2.79,2.79a6.84,6.84,0,0,0,8.75.75A7,7,0,0,0,76,62.2l25.27-25.27a6.83,6.83,0,0,0,0-9.66L76,2a6.84,6.84,0,0,0-9.66,0L47.62,20.71a1.88,1.88,0,0,0-.56,1.35,1.92,1.92,0,0,0,.56,1.35Z"/><path class="cls-1" d="M236.86,55.06h-6.33L229,60.25h-2.92l6-18.21h3.31l6,18.21h-3Zm-.69-2.26-.72-2.45c-.61-2-1.16-4-1.73-6.06h-.1c-.52,2.08-1.09,4.08-1.68,6.06l-.74,2.45Z"/><path class="cls-1" d="M243,55.2V46.64h2.85v8.22c0,2.35.67,3.26,2.28,3.26,1.26,0,2.12-.59,3.26-2V46.64h2.85V60.25h-2.33l-.22-2h-.07a5.73,5.73,0,0,1-4.46,2.37C244.29,60.57,243,58.67,243,55.2Z"/><path class="cls-1" d="M258.73,55.8V48.92h-2V46.79l2.11-.15.32-3.76h2.4v3.76h3.54v2.28h-3.54v6.9c0,1.64.57,2.48,2,2.48A4.15,4.15,0,0,0,265,58l.52,2.1a8.63,8.63,0,0,1-2.67.49C259.8,60.57,258.73,58.67,258.73,55.8Z"/><path class="cls-1" d="M266.45,53.47c0-4.55,3.05-7.17,6.41-7.17s6.41,2.62,6.41,7.17-3,7.1-6.41,7.1S266.45,58,266.45,53.47Zm9.9,0c0-2.89-1.34-4.82-3.49-4.82s-3.46,1.93-3.46,4.82,1.33,4.78,3.46,4.78S276.35,56.34,276.35,53.47Z"/><path class="cls-1" d="M282.36,46.64h2.33l.22,1.91H285a5.94,5.94,0,0,1,4.21-2.25A3.63,3.63,0,0,1,293,48.79c1.34-1.43,2.72-2.49,4.43-2.49,2.85,0,4.18,1.93,4.18,5.39v8.56h-2.84V52c0-2.35-.75-3.29-2.28-3.29-.94,0-1.93.61-3.07,1.85v9.65h-2.84V52c0-2.35-.72-3.29-2.28-3.29-.92,0-1.93.61-3.07,1.85v9.65h-2.82Z"/><path class="cls-1" d="M304.63,56.64c0-2.92,2.47-4.43,8.14-5,0-1.58-.6-3-2.6-3A7.5,7.5,0,0,0,306.24,50l-1.07-1.93a10.44,10.44,0,0,1,5.49-1.78c3.39,0,4.95,2.15,4.95,5.76v8.19h-2.32L313,58.69H313a6.75,6.75,0,0,1-4.33,1.88A3.76,3.76,0,0,1,304.63,56.64Zm8.14.1V53.4c-4,.49-5.4,1.51-5.4,3,0,1.34.92,1.88,2.13,1.88A4.83,4.83,0,0,0,312.77,56.74Z"/><path class="cls-1" d="M319.42,55.8V48.92h-2V46.79l2.11-.15.32-3.76h2.4v3.76h3.54v2.28h-3.54v6.9c0,1.64.57,2.48,2,2.48a4.15,4.15,0,0,0,1.46-.32l.52,2.1a8.7,8.7,0,0,1-2.68.49C320.49,60.57,319.42,58.67,319.42,55.8Z"/><path class="cls-1" d="M328.13,42.41a1.68,1.68,0,0,1,1.81-1.68,1.68,1.68,0,1,1-1.81,1.68Zm.4,4.23h2.82V60.25h-2.82Z"/><path class="cls-1" d="M334.14,58.72l6.71-9.8h-6V46.64h9.56v1.51L337.73,58h6.93v2.27H334.14Z"/><path class="cls-1" d="M345.89,56.64c0-2.92,2.48-4.43,8.14-5,0-1.58-.59-3-2.59-3A7.53,7.53,0,0,0,347.5,50l-1.06-1.93a10.41,10.41,0,0,1,5.49-1.78c3.39,0,4.95,2.15,4.95,5.76v8.19h-2.33l-.24-1.56h-.08a6.7,6.7,0,0,1-4.33,1.88A3.76,3.76,0,0,1,345.89,56.64Zm8.14.1V53.4c-4,.49-5.39,1.51-5.39,3,0,1.34.92,1.88,2.13,1.88A4.79,4.79,0,0,0,354,56.74Z"/><path class="cls-1" d="M359.7,53.47c0-4.55,3.14-7.17,6.73-7.17a5.86,5.86,0,0,1,4,1.55L369,49.71a3.55,3.55,0,0,0-2.45-1.06c-2.27,0-3.91,1.93-3.91,4.82s1.56,4.78,3.84,4.78a4.69,4.69,0,0,0,3-1.24l1.16,1.88a6.64,6.64,0,0,1-4.4,1.68C362.52,60.57,359.7,58,359.7,53.47Z"/><path class="cls-1" d="M372.81,42.41a1.68,1.68,0,0,1,1.81-1.68,1.68,1.68,0,1,1-1.81,1.68Zm.4,4.23H376V60.25h-2.82Z"/><path class="cls-1" d="M379.1,53.47c0-4.55,3-7.17,6.4-7.17s6.41,2.62,6.41,7.17-3,7.1-6.41,7.1S379.1,58,379.1,53.47Zm9.89,0c0-2.89-1.33-4.82-3.49-4.82S382,50.58,382,53.47s1.34,4.78,3.46,4.78S389,56.34,389,53.47Zm-5.12-10.56,4.06-4.78,2,1.91-4.58,4.28Z"/><path class="cls-1" d="M395,46.64h2.33l.22,1.88h.08a6.47,6.47,0,0,1,4.5-2.22c2.89,0,4.18,1.93,4.18,5.39v8.56h-2.84V52c0-2.35-.7-3.29-2.31-3.29-1.26,0-2.12.64-3.34,1.85v9.65H395Z"/><path class="cls-1" d="M227.81,72.1a1.67,1.67,0,0,1,1.8-1.68,1.69,1.69,0,1,1,0,3.36A1.68,1.68,0,0,1,227.81,72.1Zm.39,4.23H231V89.94H228.2Z"/><path class="cls-1" d="M235.06,76.33h2.32l.23,1.88h.07a6.5,6.5,0,0,1,4.5-2.23c2.9,0,4.19,1.93,4.19,5.4v8.56h-2.85V81.73c0-2.36-.69-3.3-2.3-3.3-1.26,0-2.13.65-3.34,1.86v9.65h-2.82Z"/><path class="cls-1" d="M249.33,83.16c0-4.43,2.8-7.18,5.84-7.18a5.24,5.24,0,0,1,3.66,1.54l-.12-2.25v-5h2.85V89.94h-2.33L259,88.41h-.07a5.72,5.72,0,0,1-4,1.85C251.53,90.26,249.33,87.66,249.33,83.16Zm9.38,3.09V79.6a4.26,4.26,0,0,0-3-1.24c-1.91,0-3.44,1.81-3.44,4.75,0,3.09,1.21,4.8,3.34,4.8A4,4,0,0,0,258.71,86.25Z"/><path class="cls-1" d="M265.41,84.89V76.33h2.85v8.22c0,2.35.67,3.26,2.28,3.26,1.26,0,2.12-.59,3.26-2V76.33h2.85V89.94h-2.33l-.22-2H274a5.7,5.7,0,0,1-4.45,2.37C266.67,90.26,265.41,88.36,265.41,84.89Z"/><path class="cls-1" d="M279.24,88.38l1.34-1.83a6,6,0,0,0,3.86,1.56c1.63,0,2.4-.79,2.4-1.83,0-1.24-1.54-1.78-3-2.35-1.81-.7-3.88-1.66-3.88-4s1.83-4,4.82-4a7.2,7.2,0,0,1,4.43,1.61l-1.34,1.76a5.1,5.1,0,0,0-3-1.19c-1.48,0-2.18.74-2.18,1.68,0,1.17,1.41,1.61,2.9,2.16,1.9.71,4,1.56,4,4.13,0,2.28-1.81,4.13-5.18,4.13A8.36,8.36,0,0,1,279.24,88.38Z"/><path class="cls-1" d="M292.21,85.49V78.61h-2V76.48l2.1-.15.32-3.76h2.4v3.76h3.54v2.28h-3.54v6.9c0,1.63.57,2.48,2,2.48a3.9,3.9,0,0,0,1.46-.33l.52,2.11a8.88,8.88,0,0,1-2.67.49C293.27,90.26,292.21,88.36,292.21,85.49Z"/><path class="cls-1" d="M301.31,76.33h2.33l.22,2.45h.07c1-1.76,2.4-2.8,3.86-2.8a3.37,3.37,0,0,1,1.54.3l-.52,2.48a4,4,0,0,0-1.36-.23c-1.12,0-2.45.77-3.32,2.92v8.49h-2.82Z"/><path class="cls-1" d="M310.79,72.1a1.67,1.67,0,0,1,1.8-1.68,1.68,1.68,0,1,1-1.8,1.68Zm.39,4.23H314V89.94h-2.82Z"/><path class="cls-1" d="M317.24,86.33c0-2.92,2.48-4.43,8.15-5,0-1.58-.6-3-2.6-3a7.45,7.45,0,0,0-3.94,1.39l-1.06-1.93A10.41,10.41,0,0,1,323.28,76c3.39,0,5,2.16,5,5.77v8.19H325.9l-.24-1.56h-.08a6.7,6.7,0,0,1-4.33,1.88A3.76,3.76,0,0,1,317.24,86.33Zm8.15.1V83.09c-4,.49-5.4,1.51-5.4,3,0,1.34.92,1.88,2.13,1.88A4.83,4.83,0,0,0,325.39,86.43Z"/><path class="cls-1" d="M332,86.75V70.22h2.83V86.9c0,.76.34,1,.69,1a2,2,0,0,0,.47,0l.37,2.15a4.68,4.68,0,0,1-1.53.22C332.78,90.26,332,89,332,86.75Z"/></g></g></svg>