<?xml version="1.0" encoding="UTF-8" standalone="no"?>
<!-- Created with Inkscape (http://www.inkscape.org/) -->

<svg
   width="136.27325mm"
   height="24.509331mm"
   viewBox="0 0 136.27325 24.509331"
   version="1.1"
   id="svg1"
   xml:space="preserve"
   xmlns="http://www.w3.org/2000/svg"
   xmlns:svg="http://www.w3.org/2000/svg"><defs
     id="defs1" /><path
     d="M 6.9161205,14.82748 V 5.1455903 H 3.4580615 -4.9509985e-7 v -2.02236 -2.02236 L 9.5096705,1.1323703 c 9.5096705,0.0315 9.5096705,0.0315 9.5501905,0.36833 0.0349,0.29011 -0.005,0.33694 -0.28817,0.33694 -0.24331,0 -0.32869,0.0636 -0.32869,0.24504 0,0.1633 -0.0854,0.24504 -0.25616,0.24504 -0.18785,0 -0.25615,0.0816 -0.25615,0.30628 0,0.24504 -0.064,0.30632 -0.32019,0.30632 -0.2941,0 -0.32019,0.0448 -0.32019,0.55132 0,0.46966 -0.038,0.55136 -0.25615,0.55136 -0.17078,0 -0.25616,0.0816 -0.25616,0.24501 0,0.17981 -0.0854,0.24504 -0.32019,0.24504 -0.25615,0 -0.32019,0.0613 -0.32019,0.30631 0,0.30629 0,0.30629 -2.3046,0.30629 h -2.3046 l -0.0328,9.6484397 -0.0328,9.64844 -2.2733605,0.0334 -2.27335,0.0334 z m 19.0428805,9.59664 c -0.0482,-0.0461 -0.0876,-0.18495 -0.0876,-0.30839 0,-0.20038 -0.11873,-0.22462 -1.10064,-0.22462 -0.98305,0 -1.10761,-0.0255 -1.16587,-0.23861 -0.0491,-0.17959 -0.19686,-0.24778 -0.59638,-0.27567 -0.43903,-0.0306 -0.53824,-0.0849 -0.57206,-0.31271 -0.027,-0.18217 -0.12884,-0.27569 -0.30017,-0.27569 -0.14734,0 -0.28681,-0.10072 -0.32312,-0.2337 -0.0351,-0.12859 -0.17384,-0.2612 -0.3082,-0.29483 -0.14223,-0.0356 -0.24431,-0.16823 -0.24431,-0.31762 0,-0.17874 -0.0814,-0.25651 -0.26815,-0.25651 -0.1561,0 -0.29484,-0.0975 -0.33203,-0.23372 -0.0351,-0.12859 -0.17384,-0.26122 -0.3082,-0.29483 -0.14223,-0.0356 -0.24431,-0.16823 -0.24431,-0.31762 0,-0.17874 -0.0814,-0.25651 -0.26814,-0.25651 -0.15611,0 -0.29484,-0.0977 -0.33204,-0.23372 -0.0351,-0.12859 -0.17381,-0.26122 -0.3082,-0.29483 -0.1893,-0.0474 -0.24431,-0.17209 -0.24431,-0.55415 0,-0.41799 -0.0438,-0.49898 -0.28817,-0.53218 -0.26129,-0.0356 -0.29168,-0.11508 -0.32573,-0.85324 -0.0318,-0.68825 -0.0763,-0.8238 -0.28818,-0.8768 -0.21377,-0.0536 -0.2506,-0.17123 -0.2506,-0.80076 0,-0.67214 -0.0258,-0.74157 -0.28818,-0.77721 -0.28817,-0.0392 -0.28817,-0.0392 -0.28817,-2.79587 0,-2.75669 0,-2.75669 0.28817,-2.79584 0.27311,-0.0371 0.28818,-0.0936 0.28818,-1.0835201 0,-0.93229 0.0268,-1.05108 0.24967,-1.10682 0.19446,-0.0487 0.25819,-0.18838 0.28817,-0.63176 0.0327,-0.48367 0.0818,-0.57518 0.32667,-0.60846 0.24432,-0.0332 0.28817,-0.11423 0.28817,-0.53217 0,-0.38203 0.055,-0.5068 0.24431,-0.55414 0.13437,-0.0337 0.27306,-0.1662996 0.3082,-0.2948396 0.0372,-0.13609 0.17594,-0.23371 0.33204,-0.23371 0.22847,0 0.26814,-0.0741 0.26814,-0.50154 0,-0.39369 0.0536,-0.51494 0.24895,-0.56383 0.13693,-0.0343 0.26661,-0.18066 0.28818,-0.32547 0.0239,-0.1603 0.14666,-0.27783 0.31433,-0.30069 0.1513,-0.0214 0.30441,-0.14466 0.34022,-0.27567 0.0511,-0.18687 0.17787,-0.23816 0.5894,-0.23816 0.44673,0 0.52429,-0.0379 0.52429,-0.2565 0,-0.14938 0.1021,-0.28205 0.24431,-0.31763 0.13437,-0.0336 0.27307,-0.1663 0.30821,-0.29482 0.0495,-0.18109 0.17994,-0.23373 0.57927,-0.23373 0.43697,0 0.52162,-0.042 0.55632,-0.27566 0.0371,-0.24995 0.12033,-0.27903 0.89195,-0.31161 0.71945,-0.0304 0.86116,-0.0729 0.91657,-0.27566 0.0628,-0.2298 0.19657,-0.23975 3.22738,-0.23975 3.02575,0 3.16466,0.0107 3.22709,0.23861 0.0491,0.17959 0.19686,0.24781 0.59637,0.27569 0.43903,0.0306 0.53824,0.0849 0.57207,0.31272 0.0347,0.23372 0.11927,0.27566 0.55631,0.27566 0.40305,0 0.52961,0.0519 0.58062,0.23861 0.0491,0.17959 0.19685,0.24781 0.59637,0.27569 0.43089,0.03 0.53854,0.0866 0.57036,0.30022 0.0216,0.14466 0.15124,0.29121 0.28817,0.32547 0.21481,0.0538 0.24896,0.17316 0.24896,0.87014 0,0.72616 -0.0259,0.80783 -0.25615,0.80783 -0.18785,0 -0.25616,0.0816 -0.25616,0.30631 0,0.24502 -0.0641,0.30629 -0.3202,0.30629 -0.23479,0 -0.32018,0.0654 -0.32018,0.24504 0,0.1633096 -0.0854,0.2450396 -0.25616,0.2450396 -0.1893,0 -0.25614,0.0816 -0.25614,0.31302 0,0.29697 -0.0311,0.31109 -0.60837,0.27567 -0.51915,-0.0317 -0.61436,-0.0778 -0.64929,-0.31302 -0.0347,-0.23373 -0.11941,-0.27567 -0.55631,-0.27567 -0.40305,0 -0.52961,-0.0519 -0.58062,-0.2386096 -0.0491,-0.17959 -0.19688,-0.2478 -0.59637,-0.27566 -0.43905,-0.0306 -0.53824,-0.0849 -0.57208,-0.31272 -0.04,-0.26967 -0.077,-0.27569 -1.697,-0.27569 -1.65609,0 -1.65609,0 -1.65609,0.30631 0,0.29753 -0.0256,0.30629 -0.89653,0.30629 -0.81115,0 -0.89654,0.0234 -0.89654,0.24504 0,0.1633096 -0.0854,0.2450396 -0.25615,0.2450396 -0.18785,0 -0.25615,0.0816 -0.25615,0.30629 0,0.24504 -0.064,0.30631 -0.32019,0.30631 -0.23481,0 -0.32019,0.0654 -0.32019,0.24504 0,0.17959 -0.0854,0.24504 -0.32019,0.24504 -0.25616,0 -0.3202,0.0613 -0.3202,0.30629 0,0.22462 -0.0683,0.30631 -0.25615,0.30631 -0.2182,0 -0.25615,0.0816 -0.25615,0.55135 0,0.50639 -0.0261,0.55133 -0.32019,0.55133 -0.31105,0 -0.3202,0.0244 -0.3202,0.85764 0,0.7759701 -0.0244,0.8576401 -0.25615,0.8576401 -0.24739,0 -0.25615,0.0816 -0.25615,2.38913 0,2.30746 0.009,2.38913 0.25615,2.38913 0.23718,0 0.25615,0.0816 0.25615,1.10268 0,1.09452 0.002,1.10268 0.3202,1.10268 0.25615,0 0.32019,0.0613 0.32019,0.30629 0,0.22462 0.0683,0.30631 0.25615,0.30631 0.2182,0 0.25615,0.0816 0.25615,0.55133 0,0.50643 0.0261,0.55135 0.3202,0.55135 0.2348,0 0.32019,0.0654 0.32019,0.24504 0,0.20874 0.0854,0.24504 0.57634,0.24504 0.52938,0 0.57634,0.0251 0.57634,0.30629 0,0.24504 0.064,0.30629 0.32019,0.30629 0.23481,0 0.32019,0.0654 0.32019,0.24506 0,0.2366 0.0854,0.24502 2.48255,0.24502 2.37484,0 2.48546,-0.0107 2.54955,-0.24502 0.0532,-0.19459 0.17469,-0.24506 0.59127,-0.24506 0.5243,0 0.5243,0 0.5243,-2.44755 v -2.44757 l -2.27336,-0.0334 -2.27335,-0.0334 v -1.65401 -1.65401 h 4.3546 4.35459 v 5.26834 c 0,5.26833 0,5.26833 -0.28817,5.30749 -0.15849,0.0216 -0.28817,0.12322 -0.28817,0.22588 0,0.10265 -0.11199,0.21476 -0.24896,0.24902 -0.13692,0.0343 -0.26661,0.18067 -0.28817,0.32545 -0.0318,0.21345 -0.13948,0.27018 -0.57036,0.30025 -0.39952,0.0279 -0.54731,0.0962 -0.59637,0.27566 -0.0582,0.21281 -0.18274,0.23861 -1.15696,0.23861 -1.03466,0 -1.09387,0.015 -1.13266,0.27567 -0.0409,0.27566 -0.0409,0.27566 -3.18729,0.30839 -1.73049,0.0171 -3.18576,-0.004 -3.23392,-0.051 z m 13.8047,-0.0709 c -0.0342,-0.0857 -0.0471,-5.33829 -0.029,-11.67255 l 0.0331,-11.5168597 h 2.625563 2.62558 V 12.80315 24.44253 l -2.59654,0.0332 c -2.00755,0.0257 -2.610633,-0.002 -2.658613,-0.12258 z m 12.168303,0.004 c -0.0356,-0.0887 -0.0495,-1.98019 -0.0308,-4.2034 0.0338,-4.04222 0.0338,-4.04222 0.61015,-4.04222 0.57635,0 0.57635,0 0.57635,4.16568 0,4.16566 0,4.16566 -0.5455,4.2034 -0.36285,0.0251 -0.56714,-0.0172 -0.61015,-0.12344 z m 3.45746,-0.001 c -0.0359,-0.0896 -0.0498,-1.48479 -0.0308,-3.10072 0.0344,-2.93806 0.0344,-2.93806 0.61075,-2.93806 0.50018,0 0.58177,0.0364 0.61727,0.27567 0.0258,0.17316 0.12952,0.27568 0.27927,0.27568 0.14956,0 0.25357,-0.10265 0.27926,-0.27568 0.0396,-0.26679 0.0863,-0.27567 1.44979,-0.27567 1.35174,0 1.41044,0.0107 1.44873,0.26815 0.0249,0.16716 0.1456,0.28252 0.32016,0.30631 0.27887,0.0379 0.2803,0.0523 0.2803,2.79485 0,2.75667 0,2.75667 -0.57632,2.75667 -0.57637,0 -0.57637,0 -0.6113,-2.16655 -0.0344,-2.1353 -0.039,-2.16715 -0.32019,-2.20536 -0.18238,-0.0246 -0.30001,-0.13823 -0.32618,-0.31445 -0.037,-0.25008 -0.11057,-0.27569 -0.79157,-0.27569 -0.68093,0 -0.75443,0.0257 -0.79157,0.27569 -0.026,0.17616 -0.14384,0.28966 -0.32618,0.31445 -0.28113,0.0381 -0.28574,0.0701 -0.32019,2.20536 -0.035,2.16655 -0.035,2.16655 -0.58044,2.20429 -0.36512,0.0253 -0.56707,-0.015 -0.61075,-0.12494 z m 8.09658,0.0694 c -0.0487,-0.0465 -0.0883,-0.17917 -0.0883,-0.29474 0,-0.11573 -0.1152,-0.23917 -0.25615,-0.2744 -0.14098,-0.0354 -0.25614,-0.14809 -0.25614,-0.25081 0,-0.10265 -0.12974,-0.20445 -0.28818,-0.2259 -0.28364,-0.0384 -0.28873,-0.0703 -0.32336,-2.03008 -0.0352,-1.99094 -0.0352,-1.99094 0.28816,-1.99094 0.23798,0 0.32338,-0.0647 0.32338,-0.24504 0,-0.1633 0.0855,-0.24504 0.25614,-0.24504 0.18789,0 0.25615,-0.0816 0.25615,-0.30631 0,-0.30629 0,-0.30629 1.472872,-0.30629 h 1.47288 v -1.35334 c 0,-1.35329 0,-1.35327 0.86452,-1.31707 l 0.86453,0.0362 v 4.4107 4.4107 l -2.24916,0.0334 c -1.23705,0.0193 -2.288872,-0.004 -2.337402,-0.051 z m 2.857512,-3.0453 v -1.89907 h -1.07974 c -1.022212,0 -1.081912,0.015 -1.120652,0.27568 -0.0264,0.17724 -0.14384,0.28966 -0.32911,0.31482 -0.27768,0.0377 -0.28818,0.0855 -0.28818,1.30857 0,1.22316 0.011,1.27085 0.28818,1.30856 0.18525,0.0251 0.30278,0.13759 0.32911,0.31482 0.0388,0.26099 0.0985,0.27567 1.120652,0.27567 h 1.07974 z m 4.05973,3.04635 c -0.0491,-0.0472 -0.0894,-0.18002 -0.0894,-0.29579 0,-0.11573 -0.11543,-0.23917 -0.25618,-0.2744 -0.24664,-0.0617 -0.25613,-0.16716 -0.25613,-2.83896 0,-2.77489 0,-2.77489 0.60835,-2.73753 0.60837,0.0373 0.60837,0.0373 0.64328,2.1985 0.0328,2.0352 0.0496,2.16485 0.28818,2.22452 0.15045,0.0377 0.25325,0.16737 0.25325,0.31985 0,0.23403 0.0729,0.25651 0.8325,0.25651 0.8026,0 0.8325,-0.0107 0.8325,-0.30629 0,-0.24504 0.0641,-0.30629 0.32018,-0.30629 0.32021,0 0.32021,0 0.32021,-2.21209 0,-2.21207 0,-2.21207 0.60835,-2.17471 0.60837,0.0373 0.60837,0.0373 0.60837,3.10033 0,3.06298 0,3.06298 -0.57634,3.06298 -0.50017,0 -0.58176,-0.0364 -0.61727,-0.27565 -0.0258,-0.17316 -0.12952,-0.27568 -0.27926,-0.27568 -0.14957,0 -0.25358,0.10265 -0.27929,0.27568 -0.0392,0.26444 -0.0987,0.27706 -1.45648,0.31009 -0.77855,0.0193 -1.45576,-0.004 -1.5049,-0.051 z m 6.40338,-3.9e-4 c -0.0489,-0.0467 -0.089,-0.1798 -0.089,-0.2954 0,-0.11573 -0.11542,-0.23917 -0.25615,-0.2744 -0.15331,-0.0384 -0.25616,-0.16716 -0.25616,-0.32061 0,-0.17487 0.0815,-0.2565 0.25616,-0.2565 0.18965,0 0.25615,-0.0816 0.25615,-0.31444 0,-0.27073 0.0489,-0.30905 0.3522,-0.27566 0.25219,0.0277 0.36384,0.11701 0.39314,0.31443 0.0386,0.26099 0.0985,0.27567 1.120684,0.27567 1.07973,0 1.07973,0 1.07973,-0.48155 0,-0.40612 -0.0452,-0.4877 -0.28818,-0.52071 -0.18525,-0.0251 -0.30279,-0.13758 -0.32909,-0.31484 -0.0374,-0.25102 -0.10991,-0.27564 -0.81247,-0.27564 -0.656394,0 -0.781244,-0.0356 -0.836644,-0.23816 -0.0359,-0.13094 -0.18899,-0.25505 -0.34021,-0.27569 -0.25565,-0.0349 -0.27774,-0.11765 -0.31195,-1.17081 -0.0368,-1.1333 -0.0368,-1.1333 0.28816,-1.1333 0.26225,0 0.32501,-0.0598 0.32501,-0.30976 0,-0.30976 0,-0.30976 1.761064,-0.27567 1.76103,0.0341 1.76103,0.0341 1.76103,0.58543 0,0.55133 0,0.55133 -1.44085,0.58598 -1.44086,0.0345 -1.44086,0.0345 -1.44086,0.51366 0,0.47597 0.004,0.47927 0.54433,0.51669 0.45249,0.0313 0.55121,0.0842 0.58525,0.31334 0.0346,0.23375 0.11916,0.27569 0.55632,0.27569 0.4027,0 0.52962,0.0521 0.58048,0.23814 0.0359,0.13094 0.18899,0.25505 0.34021,0.27566 0.16763,0.0229 0.29045,0.14037 0.31433,0.3007 0.022,0.14487 0.15133,0.2912 0.28818,0.32547 0.32261,0.0806 0.3223,0.45737 -4.6e-4,0.53813 -0.18767,0.0469 -0.25904,0.18837 -0.28818,0.57048 -0.0317,0.41538 -0.0899,0.51507 -0.31905,0.54625 -0.17467,0.0238 -0.29531,0.13931 -0.32018,0.30632 -0.0383,0.25815 -0.10199,0.2694 -1.71203,0.30215 -0.919664,0.0193 -1.712134,-0.004 -1.761034,-0.051 z m 6.404894,9.2e-4 c -0.0496,-0.0474 -0.0901,-0.18323 -0.0901,-0.30217 0,-0.13073 -0.11366,-0.23156 -0.28819,-0.25527 -0.2849,-0.0388 -0.28855,-0.0636 -0.32311,-2.20696 -0.035,-2.16782 -0.035,-2.16782 -0.57635,-2.20534 -0.5414,-0.0375 -0.5414,-0.0375 -0.58044,-0.61952 -0.039,-0.58196 -0.039,-0.58196 0.54434,-0.58196 0.58335,0 0.58335,0 0.58335,-0.8031 0,-0.80309 0,-0.80309 0.60837,-0.76574 0.60837,0.0373 0.60837,0.0373 0.64635,0.79761 0.0379,0.76028 0.0379,0.76028 0.89653,0.79639 0.85855,0.0362 0.85855,0.0362 0.85855,0.58742 0,0.55135 0,0.55137 -0.86452,0.58757 l -0.86451,0.0362 v 1.88784 1.88786 l 0.86451,0.0362 c 0.86452,0.0362 0.86452,0.0362 0.86452,0.58757 0,0.55133 0,0.55133 -1.09473,0.58637 -0.60207,0.0193 -1.1352,-0.004 -1.18469,-0.051 z m 3.45889,9.2e-4 c -0.0531,-0.0443 -0.0908,-1.45903 -0.0908,-3.13614 0,-3.04928 0,-3.04928 0.60835,-3.01193 0.60837,0.0373 0.60837,0.0373 0.64775,0.55804 0.0269,0.35455 0.0985,0.52072 0.22413,0.52072 0.10177,0 0.18481,-0.11037 0.18481,-0.24504 0,-0.1798 0.0855,-0.24506 0.32019,-0.24506 0.2577,0 0.32021,-0.0609 0.32021,-0.31188 0,-0.30695 0.0132,-0.31133 0.8645,-0.27569 0.86453,0.0362 0.86453,0.0362 0.86453,0.58757 0,0.55135 0,0.55135 -0.79234,0.58763 -0.70541,0.0324 -0.79675,0.066 -0.83252,0.30629 -0.0253,0.17059 -0.14516,0.28431 -0.32539,0.3088 -0.28113,0.0382 -0.28576,0.0701 -0.32019,2.20538 -0.035,2.16655 -0.035,2.16655 -0.80866,2.20236 -0.42555,0.0193 -0.81183,-0.007 -0.86451,-0.051 z m 5.11762,-0.004 c -0.0469,-0.0448 -0.0855,-1.45085 -0.0855,-3.12425 0,-3.04258 0,-3.04258 0.57634,-3.04258 0.57635,0 0.57635,0 0.57635,3.12425 0,3.12425 0,3.12425 -0.49097,3.12425 -0.27001,0 -0.52938,-0.0369 -0.57634,-0.0816 z m 3.45805,0 c -0.0469,-0.0448 -0.0855,-0.17638 -0.0855,-0.29202 0,-0.11573 -0.11543,-0.23915 -0.25616,-0.2744 -0.23245,-0.0583 -0.25613,-0.16716 -0.25613,-1.17824 0,-1.03246 0.0198,-1.11413 0.25613,-1.11413 0.17071,0 0.25616,-0.0816 0.25616,-0.24504 0,-0.20873 0.0855,-0.24506 0.57634,-0.24506 0.52938,0 0.57634,-0.0251 0.57634,-0.30629 0,-0.29754 0.0256,-0.30629 0.89653,-0.30629 0.89653,0 0.89653,0 0.89653,-0.49008 0,-0.49008 0,-0.49008 -1.15268,-0.49008 -1.14414,0 -1.15269,0.002 -1.15269,0.30629 0,0.24504 -0.0641,0.30631 -0.32018,0.30631 -0.25616,0 -0.32019,-0.0613 -0.32019,-0.30631 0,-0.22462 -0.0683,-0.30629 -0.25616,-0.30629 -0.18789,0 -0.25613,-0.0816 -0.25613,-0.30631 0,-0.22462 0.0683,-0.30629 0.25613,-0.30629 0.18789,0 0.25616,-0.0816 0.25616,-0.30631 0,-0.30629 0,-0.30629 1.79306,-0.30629 1.79308,0 1.79308,0 1.79308,0.30629 0,0.22462 0.0683,0.30631 0.25616,0.30631 0.17071,0 0.25615,0.0817 0.25615,0.24504 0,0.17959 0.0855,0.24504 0.32019,0.24504 0.32019,0 0.32019,0 0.32019,2.57292 0,2.5729 0,2.5729 -0.57634,2.5729 -0.52939,0 -0.57635,-0.0251 -0.57635,-0.30629 0,-0.28134 -0.0469,-0.30631 -0.57634,-0.30631 -0.52938,0 -0.57636,0.0251 -0.57636,0.30631 0,0.30359 -0.009,0.30629 -1.13132,0.30629 -0.62225,0 -1.16978,-0.0369 -1.21675,-0.0816 z m 2.86039,-1.9399 c 0,-0.79639 0,-0.79639 -0.89653,-0.79639 -0.87093,0 -0.89655,0.009 -0.89655,0.30631 0,0.22462 -0.0683,0.30631 -0.25615,0.30631 -0.21345,0 -0.25616,0.0817 -0.25616,0.49008 0,0.49006 0,0.49006 1.15269,0.49006 1.1527,0 1.1527,0 1.1527,-0.79637 z m 3.45806,-2.4504 c 0,-4.47197 0,-4.47197 0.57635,-4.47197 0.57634,0 0.57634,0 0.57634,3.85937 0,3.85937 0,3.85937 0.32019,3.85937 0.29884,0 0.32018,0.0407 0.32018,0.6126 0,0.6126 0,0.6126 -0.89653,0.6126 h -0.89653 z m -9.86188,-3.00196 c 0,-0.16331 -0.0855,-0.24504 -0.25616,-0.24504 -0.19912,0 -0.25615,-0.0817 -0.25615,-0.36756 0,-0.28589 0.0568,-0.36756 0.25615,-0.36756 0.17071,0 0.25616,-0.0817 0.25616,-0.24504 0,-0.20874 0.0855,-0.24504 0.57634,-0.24504 0.57634,0 0.57634,0 0.57634,0.85764 0,0.85764 0,0.85764 -0.57634,0.85764 -0.49096,0 -0.57634,-0.0362 -0.57634,-0.24504 z M 50.771494,10.00295 c -0.04356,-0.0958 -0.0528,-0.3621801 -0.0302,-0.5875901 0.0318,-0.317 0.1063,-0.41873 0.32921,-0.44899 0.26521,-0.036 0.28817,-0.10287 0.28817,-0.83851 0,-0.69037 0.0342,-0.80785 0.2506,-0.86201 0.21186,-0.0529 0.25642,-0.18859 0.28817,-0.8768 0.0342,-0.73816 0.0645,-0.81775 0.32574,-0.85324 0.26242,-0.0356 0.28817,-0.10501 0.28817,-0.7772396 0,-0.62957 0.0368,-0.74727 0.25062,-0.80076 0.21185,-0.0529 0.25641,-0.18859 0.28817,-0.8768 0.0335,-0.72607 0.0673,-0.81814 0.31268,-0.85161 0.15132,-0.0214 0.30516,-0.14745 0.34188,-0.28178 0.0592,-0.21675 0.15794,-0.24011 0.87757,-0.20745 0.8108,0.0367 0.8108,0.0367 0.84873,0.7947 0.0337,0.67479 0.0687,0.76219 0.32019,0.79637 0.2541,0.0347 0.28602,0.11958 0.31983,0.85252 0.0317,0.68825 0.0762,0.8238 0.28818,0.8768 0.21367,0.0536 0.25059,0.17123 0.25059,0.8007596 0,0.67211 0.0258,0.74157 0.28818,0.77721 0.26129,0.0356 0.29168,0.11508 0.32574,0.85327 0.0319,0.69519 0.0751,0.82348 0.29426,0.87832 0.23027,0.0576 0.25276,0.15044 0.21851,0.90116 -0.0381,0.8369601 -0.0381,0.8369601 -0.61445,0.8369601 -0.49202,0 -0.58209,-0.0384 -0.61555,-0.2631701 -0.022,-0.14466 -0.15133,-0.2912 -0.28818,-0.32547 -0.21213,-0.0531 -0.24896,-0.17252 -0.24896,-0.80886 0,-0.74659 0,-0.74659 -1.66001,-0.74659 h -1.66002 l -0.0369,1.07204 c -0.0369,1.0720501 -0.0369,1.0720501 -0.90329,1.1083101 -0.66447,0.0279 -0.876368,-0.007 -0.93758,-0.14144 z m 4.55751,-3.8766601 c 0,-0.40841 -0.0427,-0.49008 -0.25616,-0.49008 -0.23719,0 -0.25615,-0.0816 -0.25615,-1.1026796 0,-1.02099 -0.0198,-1.10268 -0.25616,-1.10268 -0.17467,0 -0.25615,0.0816 -0.25615,0.25651 0,0.15194 -0.10265,0.28217 -0.25138,0.3194 -0.22148,0.0555 -0.25573,0.18881 -0.28816,1.12184 -0.0346,0.9924796 -0.0548,1.0613996 -0.32499,1.0981096 -0.15848,0.0214 -0.28817,0.11787 -0.28817,0.2144 0,0.13823 0.22987,0.1753 1.08867,0.1753 1.08865,0 1.08865,0 1.08865,-0.49008 z m 4.18788,3.9653701 c -0.0493,-0.0471 -0.0894,-0.1828101 -0.0894,-0.3016901 0,-0.13072 -0.11366,-0.23153 -0.28816,-0.25524 -0.28818,-0.039 -0.28818,-0.039 -0.28818,-2.79584 0,-2.7566896 0,-2.7566896 0.57634,-2.7566896 0.57635,0 0.57635,0 0.61128,2.1665696 0.0344,2.13528 0.039,2.16713 0.32021,2.20534 0.18239,0.0246 0.30004,0.13823 0.32618,0.31445 0.037,0.25008 0.11058,0.27569 0.79157,0.27569 0.68093,0 0.75444,-0.0257 0.79157,-0.27569 0.0262,-0.17616 0.14384,-0.28966 0.32618,-0.31445 0.28114,-0.0382 0.28576,-0.0701 0.32019,-2.20534 0.035,-2.1665696 0.035,-2.1665696 0.61128,-2.1665696 0.57634,0 0.57634,0 0.57634,3.0629796 0,3.0630001 0,3.0630001 -0.60835,3.1003301 -0.5772,0.0354 -0.60837,0.0214 -0.60837,-0.2756401 0,-0.41282 -0.47475,-0.44596 -0.53541,-0.0373 -0.039,0.2634001 -0.10111,0.2772101 -1.39235,0.3102101 -0.74326,0.0193 -1.39165,-0.004 -1.44084,-0.051 z m 7.338982,-0.2239101 c 0,-0.22923 -0.0672,-0.31092 -0.25616,-0.31092 -0.24666,0 -0.25615,-0.0816 -0.25615,-2.20534 0,-2.2053596 0,-2.2053596 -0.58335,-2.2053596 -0.58337,0 -0.58337,0 -0.54432,-0.58198 0.039,-0.58195 0.039,-0.58195 0.57767,-0.61937 0.53863,-0.0375 0.53863,-0.0375 0.57634,-0.85764 0.0377,-0.82022 0.0377,-0.82022 0.61405,-0.82022 0.57635,0 0.57635,0 0.61408,0.82129 0.0377,0.82132 0.0377,0.82132 0.8325,0.85764 0.79476,0.0362 0.79476,0.0362 0.79476,0.58768 0,0.55133 0,0.55133 -0.80049,0.5878 -0.80047,0.0364 -0.80047,0.0364 -0.80047,1.9238496 0,1.88737 0,1.88737 0.80047,1.92384 0.80049,0.0364 0.80049,0.0364 0.80049,0.58781 0,0.5513501 0,0.5513501 -1.18471,0.5865801 -1.18471,0.0354 -1.18471,0.0354 -1.18471,-0.2756601 z m 4.61074,-9.2e-4 c 0,-0.28598 -0.0449,-0.31022 -0.57632,-0.31022 -0.57634,0 -0.57634,0 -0.57634,-0.55133 0,-0.46965 -0.0381,-0.55132 -0.25616,-0.55132 -0.24142,0 -0.25615,-0.0816 -0.25615,-1.42046 0,-1.30464 0.0198,-1.42554 0.24943,-1.48284 0.18767,-0.0469 0.25902,-0.1883796 0.28816,-0.5705096 0.0381,-0.50125 0.046,-0.5086 0.56989,-0.54516 0.39951,-0.0279 0.54731,-0.0962 0.59637,-0.27566 0.0597,-0.21853 0.18591,-0.23861 1.49805,-0.23861 1.3113,0 1.43836,0.0193 1.49792,0.23816 0.0359,0.13094 0.18899,0.25502 0.34023,0.27566 0.16763,0.0227 0.29043,0.14037 0.31433,0.3007 0.022,0.14465 0.15133,0.2912 0.28816,0.32545 0.23322,0.0583 0.24897,0.18387 0.24897,1.9842696 0,1.78791 -0.0176,1.92627 -0.24432,1.98313 -0.13437,0.0337 -0.27305,0.1663 -0.30819,0.29482 -0.0363,0.13287 -0.17577,0.2337 -0.32314,0.2337 -0.17137,0 -0.27311,0.0934 -0.30016,0.27569 -0.0394,0.2657001 -0.0954,0.2769101 -1.54581,0.3101901 -1.50492,0.0345 -1.50492,0.0345 -1.50492,-0.2756601 z m 2.43346,-1.17932 c 0,-0.15345 0.10287,-0.28225 0.25615,-0.32059 0.23638,-0.0591 0.25616,-0.16716 0.25616,-1.3975 0,-1.25175 -0.0154,-1.33342 -0.25616,-1.33342 -0.17071,0 -0.25615,-0.0816 -0.25615,-0.2450396 0,-0.21946 -0.0855,-0.24504 -0.81756,-0.24504 -0.70985,0 -0.82638,0.0324 -0.88453,0.24504 -0.0401,0.1465796 -0.17468,0.2450396 -0.33514,0.2450396 -0.25579,0 -0.26814,0.0617 -0.26814,1.33919 0,1.29551 0.009,1.34047 0.28818,1.37834 0.18525,0.0251 0.30279,0.13759 0.32909,0.31482 0.0377,0.25325 0.10793,0.27569 0.86452,0.27569 0.75047,0 0.82358,-0.0229 0.82358,-0.25653 z m 3.48786,-1.60626 c 0.0341,-3.0992596 0.0341,-3.0992596 0.588504,-3.1374096 0.47,-0.0324 0.56476,2.6e-4 0.62331,0.21439 0.0881,0.32252 0.37312,0.32717 0.4605,0.009 0.0619,-0.22661 0.17467,-0.24501 1.49981,-0.24501 1.32512,0 1.43785,0.0193 1.49979,0.24501 0.0978,0.3576 1.00204,0.35411 1.1,-0.004 0.0641,-0.23417 0.15221,-0.24718 1.4558,-0.21441 1.38765,0.0349 1.38765,0.0349 1.42664,0.54794 0.0319,0.42095 0.0894,0.51993 0.32019,0.55135 0.27911,0.0379 0.2812,0.057 0.2812,2.5499296 V 10.10971 l -0.92856,0.036 -0.92854,0.036 V 7.6646999 c 0,-2.5170296 0,-2.5170296 -0.75353,-2.5170296 -0.64579,0 -0.76309,0.0349 -0.82051,0.24504 -0.0399,0.1455196 -0.17468,0.2450396 -0.33224,0.2450396 -0.2573,0 -0.26629,0.0669 -0.30014,2.23597 -0.035,2.2360001 -0.035,2.2360001 -0.64329,2.2733601 -0.60837,0.0373 -0.60837,0.0373 -0.60837,-2.2360101 0,-2.19164 -0.009,-2.27332 -0.25613,-2.27332 -0.17071,0 -0.25618,-0.0817 -0.25618,-0.2450396 0,-0.21983 -0.0855,-0.24504 -0.82983,-0.24504 h -0.82983 l -0.0346,2.4810296 -0.0346,2.4810201 -0.86672,0.0362 -0.866714,0.0362 z m 11.497084,2.78167 c 0,-0.24504 -0.0641,-0.30631 -0.32019,-0.30631 -0.31907,0 -0.32019,-0.004 -0.32019,-1.16393 0,-1.15096 0.004,-1.16395 0.31127,-1.16395 0.22531,0 0.32261,-0.0761 0.35224,-0.27566 0.0339,-0.22785 0.13304,-0.28209 0.57204,-0.31272 0.39951,-0.0279 0.54731,-0.0962 0.59639,-0.27566 0.0555,-0.2036 0.17996,-0.23861 0.84567,-0.23861 0.78045,0 0.78045,0 0.78045,-0.49008 0,-0.4900796 0,-0.4900796 -1.73753,-0.4900796 -1.73756,0 -1.73756,0 -1.69703,-0.33694 0.0284,-0.23582 0.12314,-0.34819 0.31565,-0.37444 0.15133,-0.0214 0.30442,-0.14466 0.34021,-0.27566 0.0601,-0.22057 0.189,-0.23816 1.7421,-0.23816 1.5916,0 1.677,0.0129 1.677,0.24504 0,0.1633 0.0855,0.24504 0.25613,0.24504 0.24888,0 0.25615,0.0816 0.25615,2.8791996 0,2.8792101 0,2.8792101 -0.57634,2.8792101 -0.52938,0 -0.57634,-0.0251 -0.57634,-0.3062901 0,-0.22461 -0.0683,-0.30631 -0.25616,-0.30631 -0.18789,0 -0.25615,0.0816 -0.25615,0.30631 0,0.3040201 -0.009,0.3062901 -1.15269,0.3062901 -1.14414,0 -1.15268,-0.002 -1.15268,-0.3062901 z m 2.81768,-1.71528 c 0,-0.79636 0,-0.79636 -0.75955,-0.79636 -0.69018,0 -0.76328,0.0251 -0.80049,0.27566 -0.0262,0.17723 -0.14384,0.28966 -0.32908,0.31482 -0.24303,0.033 -0.28819,0.11444 -0.28819,0.5207 0,0.48158 0,0.48158 1.08866,0.48158 1.08865,0 1.08865,0 1.08865,-0.7964 z m 4.09843,1.71528 c 0,-0.24504 -0.0641,-0.30631 -0.32019,-0.30631 -0.32018,0 -0.32018,0 -0.32018,-2.20533 0,-2.2053596 0,-2.2053596 -0.58337,-2.2053596 -0.58335,0 -0.58335,0 -0.54432,-0.58198 0.039,-0.58195 0.039,-0.58195 0.57766,-0.61937 0.53866,-0.0375 0.53866,-0.0375 0.57635,-0.85764 0.0377,-0.82025 0.0377,-0.82025 0.58205,-0.8579 0.54431,-0.0377 0.54431,-0.0377 0.54431,0.82699 0,0.8647 0,0.8647 0.89655,0.8647 0.89653,0 0.89653,0 0.89653,0.6126 0,0.6126 0,0.6126 -0.89653,0.6126 h -0.89655 v 1.8990396 1.89908 h 0.89655 c 0.89653,0 0.89653,0 0.89653,0.61257 0,0.6126001 0,0.6126001 -1.1527,0.6126001 -1.14414,0 -1.15269,-0.002 -1.15269,-0.3062901 z m 3.45808,-2.81796 c 0,-3.1242396 0,-3.1242396 0.57634,-3.1242396 0.57635,0 0.57635,0 0.57635,3.1242396 0,3.1242501 0,3.1242501 -0.57635,3.1242501 -0.57634,0 -0.57634,0 -0.57634,-3.1242501 z m 2.94575,2.51165 c 0,-0.5309 0.0341,-0.61257 0.25615,-0.61257 0.21829,0 0.25616,-0.0816 0.25616,-0.55136 0,-0.50641 0.026,-0.55132 0.32019,-0.55132 0.25615,0 0.32018,-0.0613 0.32018,-0.30632 0,-0.22461 0.0683,-0.30631 0.25616,-0.30631 0.21829,0 0.25615,-0.0816 0.25615,-0.55133 0,-0.50641 0.026,-0.55132 0.32019,-0.55132 0.25616,0 0.32019,-0.0613 0.32019,-0.30632 0,-0.22461 0.0683,-0.30628 0.25615,-0.30628 0.1423,0 0.25616,-0.0817 0.25616,-0.1838796 0,-0.15216 -0.24193,-0.18366 -1.40884,-0.18366 -1.40884,0 -1.40884,0 -1.40884,-0.6126 0,-0.6126 0,-0.6126 2.30537,-0.6126 2.30539,0 2.30539,0 2.30539,0.6126 0,0.57177 -0.022,0.6126 -0.32021,0.6126 -0.29408,0 -0.32018,0.0448 -0.32018,0.5513296 0,0.46965 -0.0381,0.55135 -0.25616,0.55135 -0.17071,0 -0.25615,0.0816 -0.25615,0.24504 0,0.17959 -0.0855,0.24504 -0.32019,0.24504 -0.29885,0 -0.32019,0.0407 -0.32019,0.6126 0,0.5309 -0.0341,0.6126 -0.25616,0.6126 -0.17071,0 -0.25615,0.0816 -0.25615,0.24502 0,0.1798 -0.0855,0.24506 -0.32019,0.24506 -0.23481,0 -0.32019,0.0654 -0.32019,0.24502 0,0.23085 0.0855,0.24506 1.47288,0.24506 1.47289,0 1.47289,0 1.47289,0.61258 0,0.6126001 0,0.6126001 -2.30539,0.6126001 -2.30537,0 -2.30537,0 -2.30537,-0.6126001 z m 6.27574,0.30631 c 0,-0.22461 -0.0683,-0.30631 -0.25616,-0.30631 -0.23816,0 -0.25613,-0.0816 -0.25613,-1.16393 0,-1.08225 0.0176,-1.16395 0.25613,-1.16395 0.18789,0 0.25616,-0.0816 0.25616,-0.30629 0,-0.28132 0.0469,-0.30628 0.57634,-0.30628 0.49097,0 0.57636,-0.0362 0.57636,-0.24504 0,-0.22171 0.0855,-0.24504 0.89651,-0.24504 0.89653,0 0.89653,0 0.89653,-0.49008 0,-0.4900796 0,-0.4900796 -1.729,-0.4900796 -1.72903,0 -1.72903,0 -1.72903,-0.36756 0,-0.28589 0.0568,-0.36756 0.25613,-0.36756 0.17071,0 0.25616,-0.0816 0.25616,-0.24504 0,-0.23294 0.0855,-0.24504 1.72905,-0.24504 1.64363,0 1.729,0.0107 1.729,0.24504 0,0.17959 0.0855,0.24504 0.32021,0.24504 0.32019,0 0.32019,0 0.32019,2.8791996 0,2.8792101 0,2.8792101 -0.57636,2.8792101 -0.52936,0 -0.57635,-0.0251 -0.57635,-0.3062901 0,-0.24504 -0.0641,-0.30631 -0.32016,-0.30631 -0.25616,0 -0.32021,0.0613 -0.32021,0.30631 0,0.3040201 -0.009,0.3062901 -1.15267,0.3062901 -1.14416,0 -1.1527,-0.002 -1.1527,-0.3062901 z m 2.94574,-1.71528 c 0,-0.79636 0,-0.79636 -0.89653,-0.79636 -0.87091,0 -0.89651,0.009 -0.89651,0.30628 0,0.22462 -0.0683,0.30632 -0.25617,0.30632 -0.21345,0 -0.25613,0.0817 -0.25613,0.49008 0,0.49008 0,0.49008 1.15268,0.49008 1.15266,0 1.15266,0 1.15266,-0.7964 z m 3.97039,1.71528 c 0,-0.22461 -0.0683,-0.30631 -0.25615,-0.30631 -0.17071,0 -0.25616,-0.0816 -0.25616,-0.24501 0,-0.17981 -0.0855,-0.24504 -0.32018,-0.24504 -0.32019,0 -0.32019,0 -0.32019,-1.77656 0,-1.77652 0,-1.77652 0.32019,-1.77652 0.29408,0 0.32018,-0.045 0.32018,-0.5513296 0,-0.46968 0.0381,-0.55135 0.25616,-0.55135 0.17071,0 0.25615,-0.0816 0.25615,-0.24504 0,-0.23294 0.0855,-0.24504 1.72903,-0.24504 1.72903,0 1.72903,0 1.72903,0.6126 0,0.6126 0,0.6126 -1.40884,0.6126 -1.40884,0 -1.40884,0 -1.40884,0.5513196 0,0.50644 -0.026,0.55136 -0.32019,0.55136 -0.30869,0 -0.32019,0.0285 -0.32019,0.79636 0,0.76781 0.011,0.7964 0.32019,0.7964 0.29409,0 0.32019,0.0448 0.32019,0.55132 0,0.55136 0,0.55136 1.40884,0.55136 1.40884,0 1.40884,0 1.40884,0.61257 0,0.6126001 0,0.6126001 -1.72903,0.6126001 -1.72903,0 -1.72903,0 -1.72903,-0.3062901 z m 5.25112,-2.81796 c 0,-3.1242396 0,-3.1242396 0.57635,-3.1242396 0.57634,0 0.57634,0 0.57634,3.1242396 0,3.1242501 0,3.1242501 -0.57634,3.1242501 -0.57635,0 -0.57635,0 -0.57635,-3.1242501 z m 4.09846,2.81796 c 0,-0.24504 -0.0641,-0.30631 -0.32021,-0.30631 -0.29409,0 -0.32017,-0.0448 -0.32017,-0.55133 0,-0.46965 -0.0381,-0.55132 -0.25617,-0.55132 -0.24191,0 -0.25614,-0.0816 -0.25614,-1.47024 0,-1.38857 0.0132,-1.47024 0.25614,-1.47024 0.21829,0 0.25617,-0.0817 0.25617,-0.5513296 0,-0.50644 0.026,-0.55135 0.32017,-0.55135 0.23481,0 0.32021,-0.0654 0.32021,-0.24504 0,-0.23294 0.0855,-0.24504 1.72903,-0.24504 1.64365,0 1.72903,0.0107 1.72903,0.24504 0,0.1633 0.0855,0.24504 0.25615,0.24504 0.18789,0 0.25616,0.0816 0.25616,0.30628 0,0.24507 0.0641,0.30632 0.32018,0.30632 0.32019,0 0.32019,0 0.32019,2.0215596 0,2.0216 0,2.0216 -0.32019,2.0216 -0.23481,0 -0.32018,0.0654 -0.32018,0.24504 0,0.1633 -0.0855,0.24501 -0.25616,0.24501 -0.18789,0 -0.25615,0.0816 -0.25615,0.30631 0,0.3062901 0,0.3062901 -1.72903,0.3062901 -1.72903,0 -1.72903,0 -1.72903,-0.3062901 z m 2.81766,-1.2252 c 0,-0.24504 0.0641,-0.30628 0.32021,-0.30628 0.32019,0 0.32019,0 0.32019,-1.34772 0,-1.34772 0,-1.34772 -0.32019,-1.34772 -0.23481,0 -0.32021,-0.0654 -0.32021,-0.2450396 0,-0.22689 -0.0855,-0.24504 -1.15267,-0.24504 h -1.15268 v 1.8990396 1.89908 h 1.15268 c 1.14414,0 1.15267,-0.002 1.15267,-0.30632 z m 3.45808,-1.59276 c 0,-3.1242396 0,-3.1242396 0.57634,-3.1242396 0.49094,0 0.57634,0.0362 0.57634,0.24504 0,0.17959 0.0855,0.24504 0.32019,0.24504 0.23481,0 0.32019,-0.0654 0.32019,-0.24504 0,-0.23019 0.0855,-0.24504 1.40884,-0.24504 1.32346,0 1.40884,0.015 1.40884,0.24504 0,0.17959 0.0855,0.24504 0.32019,0.24504 0.32019,0 0.32019,0 0.32019,2.8791996 0,2.8792101 0,2.8792101 -0.57635,2.8792101 -0.57634,0 -0.57634,0 -0.57634,-2.2666101 0,-2.2666 0,-2.2666 -0.32019,-2.2666 -0.23481,0 -0.32019,-0.0654 -0.32019,-0.2450396 0,-0.21993 -0.0855,-0.24504 -0.83249,-0.24504 -0.74712,0 -0.8325,0.0251 -0.8325,0.24504 0,0.1797996 -0.0855,0.2450396 -0.32019,0.2450396 -0.32019,0 -0.32019,0 -0.32019,2.2666 0,2.2666101 0,2.2666101 -0.57634,2.2666101 -0.57634,0 -0.57634,0 -0.57634,-3.1242501 z M 99.28559,2.0522903 c 0.0377,-0.88826 0.0377,-0.88826 0.58198,-0.92594 0.50874,-0.0351 0.54432,-0.0171 0.54432,0.27567 0,0.25254 0.0621,0.31334 0.32018,0.31334 0.25616,0 0.32019,0.0613 0.32019,0.30631 0,0.24501 -0.0641,0.30629 -0.32019,0.30629 -0.25615,0 -0.32018,0.0613 -0.32018,0.30628 0,0.2818 -0.0467,0.30632 -0.58196,0.30632 -0.58196,0 -0.58196,0 -0.54434,-0.88827 z m 21.36235,-0.0307 c 0,-0.91891 0,-0.91891 0.57635,-0.91891 0.52938,0 0.57634,0.0251 0.57634,0.30631 0,0.24504 0.0641,0.30629 0.32019,0.30629 0.25615,0 0.32021,0.0613 0.32021,0.30631 0,0.24504 -0.0641,0.30629 -0.32021,0.30629 -0.25614,0 -0.32019,0.0613 -0.32019,0.30631 0,0.28134 -0.0469,0.30629 -0.57634,0.30629 -0.57635,0 -0.57635,0 -0.57635,-0.91889 z m 5.25114,0.30629 c 0,-0.53091 0.0342,-0.6126 0.25616,-0.6126 0.18789,0 0.25615,-0.0816 0.25615,-0.30629 0,-0.24504 0.0641,-0.30631 0.32019,-0.30631 0.23481,0 0.32019,-0.0654 0.32019,-0.24504 0,-0.1633 0.0855,-0.24502 0.25615,-0.24502 0.1879,0 0.25614,-0.0816 0.25614,-0.30631 0,-0.24504 0.0641,-0.30631000094977 0.32021,-0.30631000094977 0.25613,0 0.32019,0.0613000009498 0.32019,0.30631000094977 0,0.22462 0.0683,0.30631 0.25615,0.30631 0.18789,0 0.25616,0.0816 0.25616,0.30629 0,0.22462 -0.0683,0.30629 -0.25616,0.30629 -0.18789,0 -0.25615,0.0816 -0.25615,0.30631 0,0.24504 -0.0641,0.30629 -0.32019,0.30629 -0.23481,0 -0.32021,0.0654 -0.32021,0.24504 0,0.1633 -0.0855,0.24504 -0.25614,0.24504 -0.18789,0 -0.25615,0.0816 -0.25615,0.30631 0,0.28134 -0.0469,0.30629 -0.57634,0.30629 -0.57635,0 -0.57635,0 -0.57635,-0.6126 z"
     style="fill:#000000;stroke-width:0.473451"
     id="path1" /></svg>
