<?xml version="1.0" encoding="UTF-8" standalone="no"?>
<!-- Created with Inkscape (http://www.inkscape.org/) -->

<svg
   version="1.1"
   id="svg1"
   width="596"
   height="145"
   viewBox="0 0 596 145"
   sodipodi:docname="upscalemedia-transformed.svg"
   inkscape:version="1.4.2 (f4327f4, 2025-05-13)"
   xmlns:inkscape="http://www.inkscape.org/namespaces/inkscape"
   xmlns:sodipodi="http://sodipodi.sourceforge.net/DTD/sodipodi-0.dtd"
   xmlns="http://www.w3.org/2000/svg"
   xmlns:svg="http://www.w3.org/2000/svg">
  <defs
     id="defs1" />
  <sodipodi:namedview
     id="namedview1"
     pagecolor="#ffffff"
     bordercolor="#000000"
     borderopacity="0.25"
     inkscape:showpageshadow="2"
     inkscape:pageopacity="0.0"
     inkscape:pagecheckerboard="0"
     inkscape:deskcolor="#d1d1d1"
     inkscape:zoom="0.74370805"
     inkscape:cx="438.34405"
     inkscape:cy="167.4044"
     inkscape:window-width="1920"
     inkscape:window-height="1001"
     inkscape:window-x="-9"
     inkscape:window-y="-9"
     inkscape:window-maximized="1"
     inkscape:current-layer="g1" />
  <g
     inkscape:groupmode="layer"
     inkscape:label="Image"
     id="g1">
    <path
       style="fill:#000000"
       d="m 413.8573,140.76358 c -20.11015,-5.6095 -23.18575,-18.50103 -6.3328,-26.54421 7.36937,-3.51707 7.09876,-2.96458 3.30856,-6.75478 -5.16717,-5.16717 -3.62046,-13.288513 3.92457,-20.606803 4.37882,-4.24718 4.97115,-5.54701 2.52781,-5.54701 -3.45957,0 -11.17785,-9.41419 -12.47673,-15.21818 -4.38658,-19.6013 15.92377,-35.55102 37.31794,-29.30579 5.50157,1.60598 21.99526,1.00133 28.87225,-1.05844 2.44262,-0.73161 2.81582,0.61011 1.52003,5.46479 l -1.15568,4.32974 -6.7651,-0.66661 c -7.46281,-0.73537 -8.04076,-0.22435 -4.801,4.24498 12.50865,17.25599 -7.96137,40.10107 -31.66633,35.34044 -6.52038,-1.30948 -10.29776,0.81909 -10.29776,5.80283 0,4.20119 2.68156,4.9618 21.23527,6.02327 26.63954,1.52407 32.76473,5.015453 32.76473,18.675993 0,10.7972 -6.89069,18.24721 -23.5,25.40752 -4.66099,2.00937 -27.75992,2.28561 -34.47576,0.4123 z m 33.50754,-3.46219 c 10.48847,-4.48686 16.20742,-15.29885 10.71822,-20.26342 -2.99704,-2.71059 -37.65508,-6.07118 -40.87416,-3.96333 -19.08183,12.49479 7.55568,33.8949 30.15594,24.22675 z m -8.71567,-58.033973 c 7.05706,-6.57465 7.30018,-30.56767 0.37986,-37.48799 -7.8651,-7.86509 -15.19597,1.4337 -15.19597,19.2752 0,12.83129 3.66547,20.25611 10,20.25611 1.44258,0 3.60983,-0.9195 4.81611,-2.04332 z M 139.33306,109.97033 c -36.28958,-9.34812 -32.30837,-66.989893 5.07984,-73.548323 18.04014,-3.1645 31.56648,7.31808 33.10374,25.6546 l 0.60649,7.23417 h -21.67642 c -24.69219,0 -23.81499,-0.33931 -21.6598,8.37821 4.336,17.53877 22.44469,26.046173 37.89305,17.80202 6.18533,-3.30085 6.191,-2.08668 0.019,4.07742 -9.59906,9.586823 -21.78379,13.385433 -33.36594,10.401903 z m 20.77447,-46.075233 c 2.52508,-3.53531 -1.91503,-19.48013 -6.29258,-22.59722 -8.92305,-6.35377 -24.2323,12.47249 -19.72138,24.25199 0.60514,1.58023 24.80276,0.041 26.01396,-1.65477 z m 47.05798,45.564613 C 167.00719,95.581997 185.80926,35.810777 230.33306,35.810777 h 9 l 0.29394,-7.25646 c 0.3495,-8.62816 -2.12207,-15.52467 -6.2354,-17.39882 -3.56064,-1.6223399 -3.196,-2.6509399 1.19146,-3.3609699 6.19752,-1.00296 20.63427,-4.53808 22.39219,-5.48317 2.81305,-1.51235005 2.85772,-0.78777 2.86154,46.4160799 0.004,50.85724 -0.002,50.80437 6.49397,53.764253 3.4586,1.57584 3.1298,2.81801 -0.7477,2.82467 -1.7875,0.003 -4.825,0.39829 -6.75,0.87827 -1.925,0.47999 -6.2,1.45301 -9.5,2.16227 -3.3,0.70925 -6.49141,1.66012 -7.09201,2.11304 -1.74521,1.31607 -2.40799,-0.14982 -2.40799,-5.32583 0,-5.391583 -0.40888,-5.673833 -4,-2.76121 -10.41784,8.44951 -18.74612,10.50541 -28.66755,7.07681 z m 30.80878,-11.224523 c 1.79351,-0.95986 1.87707,-2.41064 1.62476,-28.20925 l -0.26599,-27.19734 -3.5,-1.71088 c -22.8493,-11.16926 -41.50982,31.9163 -22.36206,51.63212 6.49991,6.69276 17.60296,9.178303 24.50329,5.48535 z m 117.35877,11.735143 c -36.28958,-9.34812 -32.30837,-66.989893 5.07984,-73.548323 18.04014,-3.1645 31.56648,7.31808 33.10374,25.6546 l 0.60649,7.23417 h -21.67642 c -24.69219,0 -23.81499,-0.33931 -21.6598,8.37821 4.336,17.53877 22.44469,26.046173 37.89305,17.80202 6.18533,-3.30085 6.191,-2.08668 0.019,4.07742 -9.59906,9.586823 -21.78379,13.385433 -33.36594,10.401903 z m 20.77447,-46.075233 c 2.52508,-3.53531 -1.91503,-19.48013 -6.29258,-22.59722 -8.92305,-6.35377 -24.2323,12.47249 -19.72138,24.25199 0.60514,1.58023 24.80276,0.041 26.01396,-1.65477 z m 109.22553,46.026833 c -22.11854,-9.66258 -10.26243,-34.370343 19,-39.595383 3.85,-0.68745 7.5625,-1.4081 8.25,-1.60145 2.13132,-0.59942 1.61281,-13.78283 -0.7221,-18.35964 -3.59782,-7.0523 -10.76612,-10.77091 -18.52112,-9.60797 -5.15908,0.77365 -7.72842,3.03078 -4.58552,4.0283 9.05826,2.87498 6.62558,17.52499 -2.91008,17.52499 -20.00121,0 -8.32625,-22.12421 13.73882,-26.03525 26.08094,-4.62285 34.21607,5.05672 34.23813,40.73819 0.0143,23.118633 0.32452,24.101703 8.43941,26.743133 2.98439,0.97143 0.24872,3.0105 -7.3427,5.47299 -9.99366,3.24173 -16.45079,1.7614 -19.26575,-4.41676 -1.40445,-3.08242 -2.29441,-3.11559 -6.2247,-0.23198 -3.00188,2.20245 -5.05187,3.25746 -10.89145,5.60517 -3.68413,1.48115 -9.47265,1.36526 -13.20294,-0.26434 z m 26.56574,-9.64633 c 1.75965,-0.941743 1.93426,-2.205533 1.93426,-14.000013 v -12.96481 h -5.04966 c -9.19777,0 -14.93922,5.30087 -14.94661,13.79966 -0.009,10.13258 10.04109,17.457823 18.06201,13.165163 z m -483.065752,8.14359 c 0,-0.49038 1.08783,-1.16462 2.41741,-1.49832 1.32957,-0.3337 3.46707,-2.29499 4.75,-4.35841 l 2.33259,-3.751683 v -38.5 c 0,-42.68408 -0.17554,-43.91889 -6.58772,-46.33922 -6.36546,-2.40269 -1.8799,-2.82948 25.33772,-2.41079 43.927342,0.67573 53.233512,5.26404 53.099382,26.1801 -0.12037,18.76963 -11.978452,27.4548 -38.063162,27.87847 l -11.78622,0.19144 -0.26181,15.5 c -0.30965,18.33233 0.57255,21.223583 7.47558,24.500003 6.78336,3.21963 5.40442,3.5 -17.21377,3.5 -11.92388,0 -21.5,-0.39712 -21.5,-0.89159 z m 48.13834,-48.521753 c 24.050772,-10.04905 13.72597,-46.2306 -12.63834,-44.28897 l -4,0.29458 -0.26877,22.70386 -0.26878,22.70387 h 6.89665 c 3.79316,0 8.41882,-0.63601 10.27924,-1.41334 z M 273.83306,108.42741 c 0,-0.48585 0.8774,-1.11281 1.94977,-1.39325 9.49924,-2.4841 9.10038,-58.554003 -0.44748,-62.904293 -3.4586,-1.57585 -3.12979,-2.81802 0.74771,-2.82467 1.7875,-0.003 4.825,-0.39829 6.75,-0.87828 1.925,-0.47998 6.2,-1.453 9.5,-2.16226 3.3,-0.70926 6.4914,-1.66013 7.09201,-2.11305 2.19658,-1.65644 2.40799,1.04575 2.40799,30.77878 0,21.74412 0.34615,31.07518 1.22729,33.083343 1.38995,3.16775 5.6445,7.29399 7.52271,7.29583 0.6875,6.7e-4 1.25,0.45122 1.25,1.00122 0,0.63158 -7,1 -19,1 -10.45,0 -19,-0.39752 -19,-0.88337 z m 276,0.1205 c 0,-0.41958 1.0125,-1.20708 2.25,-1.75 5.50697,-2.41604 5.74708,-4.44261 5.7447,-48.487133 -0.002,-44.63374 -0.0871,-45.26247 -6.49241,-48.18091 -3.62897,-1.6534699 -3.07141,-2.8190899 1.34848,-2.8190899 2.11793,0 5.15543,-0.40145 6.75,-0.89212 1.59458,-0.49066 5.59923,-1.46618 8.89923,-2.16783 3.3,-0.70165 6.4914,-1.6463 7.09201,-2.09922 2.24427,-1.69241005 2.40799,1.55993 2.40799,47.8367299 0,51.464203 0.38315,55.039723 6.0922,56.851713 5.38285,1.70845 0.41799,2.47073 -16.0922,2.47073 -9.9,0 -18,-0.34329 -18,-0.76287 z m -238.6,-55.637133 c -3.78242,-3.78242 -4.29743,-6.96389 -1.88308,-11.63274 5.22942,-10.11258 20.44742,-5.35195 19.17898,5.99974 -1.02636,9.18516 -10.61943,12.30947 -17.2959,5.633 z"
       id="path1"
       sodipodi:nodetypes="ssssssssscssssssssssssssssssssscsssssssssssscsssscsssssssssscsssssscssssssssssssssssssssssssssscscsssscssssscsssssscccssssssssssssssssscsssssssssssss" />
  </g>
</svg>
